<?xml version="1.0" encoding="UTF-8" standalone="no"?>
<!-- Created with Inkscape (http://www.inkscape.org/) -->

<svg
   xmlns:osb="http://www.openswatchbook.org/uri/2009/osb"
   xmlns:dc="http://purl.org/dc/elements/1.1/"
   xmlns:cc="http://creativecommons.org/ns#"
   xmlns:rdf="http://www.w3.org/1999/02/22-rdf-syntax-ns#"
   xmlns:svg="http://www.w3.org/2000/svg"
   xmlns="http://www.w3.org/2000/svg"
   xmlns:sodipodi="http://sodipodi.sourceforge.net/DTD/sodipodi-0.dtd"
   xmlns:inkscape="http://www.inkscape.org/namespaces/inkscape"
   width="1280mm"
   height="720mm"
   viewBox="0 0 4535.4331 2551.1811"
   id="svg2"
   version="1.1"
   inkscape:version="0.91 r13725"
   sodipodi:docname="drawing.svg">
  <defs
     id="defs4">
    <linearGradient
       id="linearGradient4272"
       osb:paint="solid">
      <stop
         style="stop-color:#33ff0a;stop-opacity:1;"
         offset="0"
         id="stop4274" />
    </linearGradient>
  </defs>
  <sodipodi:namedview
     id="base"
     pagecolor="#ffffff"
     bordercolor="#666666"
     borderopacity="1.0"
     inkscape:pageopacity="0.0"
     inkscape:pageshadow="2"
     inkscape:zoom="0.36586229"
     inkscape:cx="1838.8279"
     inkscape:cy="1796.9472"
     inkscape:document-units="px"
     inkscape:current-layer="layer1"
     showgrid="false"
     inkscape:showpageshadow="false"
     inkscape:window-width="1440"
     inkscape:window-height="851"
     inkscape:window-x="27"
     inkscape:window-y="0"
     inkscape:window-maximized="0" />
  <metadata
     id="metadata7">
    <rdf:RDF>
      <cc:Work
         rdf:about="">
        <dc:format>image/svg+xml</dc:format>
        <dc:type
           rdf:resource="http://purl.org/dc/dcmitype/StillImage" />
        <dc:title></dc:title>
      </cc:Work>
    </rdf:RDF>
  </metadata>
  <g
     inkscape:label="Taso 1"
     inkscape:groupmode="layer"
     id="layer1"
     transform="translate(0,1498.8189)">
    <rect
       style="color:#000000;clip-rule:nonzero;display:inline;overflow:visible;visibility:visible;opacity:1;isolation:auto;mix-blend-mode:normal;color-interpolation:sRGB;color-interpolation-filters:linearRGB;solid-color:#000000;solid-opacity:1;fill:none;fill-opacity:1;fill-rule:nonzero;stroke:#000000;stroke-width:1;stroke-linecap:butt;stroke-linejoin:miter;stroke-miterlimit:4;stroke-dasharray:none;stroke-dashoffset:0;stroke-opacity:1;color-rendering:auto;image-rendering:auto;shape-rendering:auto;text-rendering:auto;enable-background:accumulate"
       id="rect4136"
       width="3830.6655"
       height="2285.498"
       x="228.0601"
       y="-1386.7216"
       rx="180" />
    <rect
       style="color:#000000;clip-rule:nonzero;display:inline;overflow:visible;visibility:visible;opacity:1;isolation:auto;mix-blend-mode:normal;color-interpolation:sRGB;color-interpolation-filters:linearRGB;solid-color:#000000;solid-opacity:1;fill:none;fill-opacity:1;fill-rule:nonzero;stroke:#000000;stroke-width:1;stroke-linecap:butt;stroke-linejoin:round;stroke-miterlimit:4;stroke-dasharray:none;stroke-dashoffset:0;stroke-opacity:1;color-rendering:auto;image-rendering:auto;shape-rendering:auto;text-rendering:auto;enable-background:accumulate"
       id="rect4142"
       width="680.31494"
       height="556.62134"
       x="1828.3464"
       y="-574.98206" />
    <rect
       style="color:#000000;clip-rule:nonzero;display:inline;overflow:visible;visibility:visible;opacity:1;isolation:auto;mix-blend-mode:normal;color-interpolation:sRGB;color-interpolation-filters:linearRGB;solid-color:#000000;solid-opacity:1;fill:#000000;fill-opacity:0;fill-rule:nonzero;stroke:#000000;stroke-width:1;stroke-linecap:butt;stroke-linejoin:miter;stroke-miterlimit:4;stroke-dasharray:none;stroke-dashoffset:0;stroke-opacity:1;color-rendering:auto;image-rendering:auto;shape-rendering:auto;text-rendering:auto;enable-background:accumulate"
       id="rect4155"
       width="490.90909"
       height="173.94417"
       x="1190.5511"
       y="545.99139"
       rx="180"
       ry="3.8654258" />
    <rect
       style="color:#000000;clip-rule:nonzero;display:inline;overflow:visible;visibility:visible;opacity:1;isolation:auto;mix-blend-mode:normal;color-interpolation:sRGB;color-interpolation-filters:linearRGB;solid-color:#000000;solid-opacity:1;fill:none;fill-opacity:1;fill-rule:nonzero;stroke:#000000;stroke-width:1;stroke-linecap:butt;stroke-linejoin:miter;stroke-miterlimit:4;stroke-dasharray:none;stroke-dashoffset:0;stroke-opacity:1;color-rendering:auto;image-rendering:auto;shape-rendering:auto;text-rendering:auto;enable-background:accumulate"
       id="rect4159"
       width="497.03879"
       height="178.94171"
       x="496.37564"
       y="544.85931"
       rx="180"
       ry="3.8654258" />
    <rect
       style="color:#000000;clip-rule:nonzero;display:inline;overflow:visible;visibility:visible;opacity:1;isolation:auto;mix-blend-mode:normal;color-interpolation:sRGB;color-interpolation-filters:linearRGB;solid-color:#000000;solid-opacity:1;fill:none;fill-opacity:1;fill-rule:nonzero;stroke:#000000;stroke-width:1;stroke-linecap:butt;stroke-linejoin:miter;stroke-miterlimit:4;stroke-dasharray:none;stroke-dashoffset:0;stroke-opacity:1;color-rendering:auto;image-rendering:auto;shape-rendering:auto;text-rendering:auto;enable-background:accumulate"
       id="rect4165"
       width="471.58197"
       height="173.94417"
       x="1870.8661"
       y="545.99139"
       rx="180"
       ry="3.8654194" />
    <path
       style="opacity:1;fill:#000000;fill-opacity:0.00190478;fill-rule:evenodd;stroke:none;stroke-width:1;stroke-linecap:square;stroke-linejoin:bevel;stroke-miterlimit:4;stroke-dasharray:1, 8;stroke-dashoffset:0;stroke-opacity:1"
       id="path4171"
       d="m 1909.3437,-468.1314 c 11.0333,0.2337 22.0711,0.1497 33.1053,0.026 8.7686,0.213 17.0955,-3.0921 25.5325,-5.0729 9.9967,-2.2418 20.3201,-1.5677 30.3622,-3.2273 9.2213,-1.6613 18.578,-2.5082 27.9246,-3.0752 7.3304,0.4951 11.2542,4.4539 14.5106,10.6621 2.8411,5.0946 6.2299,9.748 9.9866,14.205 3.0775,5.3298 6.8455,10.1794 10.2743,15.2781 3.7509,4.3058 5.06,10.1165 9.246,14.0345 -0.702,-21.8595 -60.4908,37.5347 -48.4543,24.099 18.6668,-20.8369 42.6123,-30.0597 68.0044,-33.1585 27.5761,-1.9672 55.0889,-4.676 82.648,-6.8654 20.9829,-1.5216 41.9886,-2.8498 63.0168,-3.5506 9.679,-0.2704 19.363,-0.1377 29.0442,-0.1639 7.6159,0.024 15.231,0 22.8467,-0.033 6.4922,0.01 12.9825,-0.017 19.4746,0.054 9.3373,-0.2305 18.7416,0.7107 28.003,-0.6354 10.5508,-1.1562 20.7739,-3.93 30.8346,-7.243 8.5895,-3.1106 16.94,-6.8977 25.1057,-10.9844 0,0 -44.4356,35.4123 -44.4356,35.4123 l 0,0 c -8.3734,3.8093 -16.7986,7.571 -25.5886,10.3342 -10.3995,3.0848 -20.9305,5.6572 -31.7862,6.4762 -9.4754,0.4534 -18.9644,0.1777 -28.4483,0.2901 -6.5401,0.069 -13.0783,0.048 -19.6186,0.044 -7.552,-0.043 -15.1037,-0.095 -22.6559,-0.1143 -9.5664,-0.07 -19.1336,-0.023 -28.6993,0.1089 -20.495,0.3593 -40.9822,1.1643 -61.4219,2.7578 -27.8969,2.2622 -55.7958,4.7692 -83.5787,8.1573 -5.6122,1.1967 -7.4944,1.2856 -12.476,3.3508 -1.2373,0.513 -4.7264,2.5188 -3.5743,1.8358 101.5084,-60.1765 21.0882,-11.3267 -5.1923,1.8232 -0.9346,0.4676 -1.5532,-1.3985 -2.3297,-2.0978 -3.758,-4.6088 -5.7888,-10.188 -9.5112,-14.8256 -3.405,-4.9042 -6.8382,-9.7519 -9.8876,-14.8824 -3.9503,-4.834 -7.8214,-9.6981 -10.8013,-15.2098 -2.2435,-4.6196 -5.5709,-5.6178 -10.6507,-5.1783 -9.2311,0.6849 -18.4099,1.7649 -27.5539,3.2126 -10.0459,0.8854 -20.2021,1.2014 -30.0129,3.7867 -8.6828,2.216 -17.3606,4.645 -26.4318,4.0304 -11.0577,-0.1284 -22.1188,-0.2029 -33.1756,0.025 0,0 46.3646,-33.6859 46.3646,-33.6859 z"
       inkscape:connector-curvature="0" />
    <path
       style="opacity:1;fill:#000000;fill-opacity:0.00190478;fill-rule:evenodd;stroke:none;stroke-width:1;stroke-linecap:square;stroke-linejoin:bevel;stroke-miterlimit:4;stroke-dasharray:1, 8;stroke-dashoffset:0;stroke-opacity:1"
       d="m 2400.1406,-471.3267 c -4.7588,1.7146 -9.2908,3.7223 -13.664,5.9355 l -47.9258,19.1465 c -1.0099,0.8059 -2.0195,1.6122 -3.0293,2.418 -7.6396,6.3176 -14.4559,13.527 -21.375,20.6113 -0.4582,0.4896 -0.9079,0.9863 -1.3633,1.4785 -14.2589,8.1677 -28.293,16.7432 -42.1621,25.5723 -14.9366,10.0573 -29.6005,20.4393 -44.4434,30.6465 -14.0108,10.698 -28.0476,21.2295 -41.5839,32.5137 -11.528,10.9521 -22.3657,22.6039 -33.4102,34.0371 -12.361,13.0176 -24.0913,26.5324 -34.9688,40.8222 -10.0521,10.9743 -19.8428,22.4811 -31.0468,32.3301 -10.2776,6.6274 -19.2832,14.4665 -27.7305,23.2441 -9.1253,10.0521 -19.3332,18.9346 -28.6387,28.8125 -4.9174,5.227 -9.8097,10.4739 -14.623,15.7911 -3.6844,2.1693 -7.6533,4.4951 -12.3047,7.1953 -8.7651,5.0881 -8.4722,5.1887 -17.334,10.7246 -3.2856,2.0524 -13.2859,7.9674 -9.8984,6.0879 12.3702,-6.8632 24.5757,-14.0162 36.8593,-21.0332 -0,0.001 -0,0.003 -0,0.004 -19.1105,11.0349 -38.2471,22.0249 -57.33,33.1074 -13.251,7.6956 -26.4141,15.8741 -37.4004,26.6641 l 52.9101,-21.9141 c 3.226,-2.8545 7.1505,-6.4642 10.627,-8.8965 1.8134,-1.2687 4.0724,-2.7509 6.4883,-4.2969 -2.1121,1.8025 -4.2521,3.5725 -6.4219,5.3047 2.5994,-0.8127 -1.2881,1.9049 -5.4668,4.627 1.0796,-0.4773 2.1463,-0.9612 3.2148,-1.4629 58.9398,-34.4467 31.9355,-18.3276 1.2676,-0.5938 2.6884,-1.2865 5.0389,-2.4842 7.0293,-3.5253 6.4481,-3.5687 4.7759,-2.4983 0,0 -3.5164,1.9461 -10.1128,5.6733 -19.3047,10.9335 l -39.4238,30.6739 c 24.3968,-6.5817 44.9539,-22.6677 66.4062,-36.2324 -5.1119,2.7634 -10.3255,5.5367 -15.6074,8.4355 -10.5412,6.0522 -17.5439,10.0635 -10.4512,5.9004 3.516,-2.0637 6.995,-4.0035 10.4512,-5.9004 11.0011,-6.3162 25.8728,-14.8645 33.3438,-19.0898 1.8799,-1.0631 -3.6957,2.2386 -5.543,3.3574 -4.1185,2.2868 -8.1694,4.7524 -12.1934,7.2969 13.8812,-7.5039 27.0709,-15.0756 39.1934,-25.7911 6.6297,-5.8078 13.3321,-11.561 19.373,-17.9843 3.8729,-1.7428 7.7164,-3.5624 11.502,-5.5254 33.4072,-15.2981 61.7169,-36.6645 90.9141,-57.9844 15.3817,-13.0895 30.4878,-26.5219 45.3066,-40.252 14.7423,-14.9128 28.4042,-30.8006 42.1523,-46.6074 10.7553,-14.0254 23.2962,-26.457 35.3086,-39.3613 11.0884,-11.7002 22.1668,-23.486 33.9903,-34.4531 9.9385,-8.5088 19.3868,-17.3685 28.0781,-27.1368 5.7146,-6.1487 11.2015,-12.4874 16.8027,-18.7226 5.0514,-2.9119 10.1088,-5.8138 15.1563,-8.7324 6.9912,-4.0427 13.8934,-8.2727 20.6543,-12.6895 2.1566,-1.4087 8.6726,-5.5498 6.4219,-4.2969 -13.2269,7.3632 -26.288,15.0189 -39.4063,22.5743 1.1169,-1.2219 2.2403,-2.4386 3.375,-3.6446 l 37.2285,-30.1191 z m -433.0332,356.2851 1.6563,-1.289 c -5.6354,3.2318 -11.0197,6.3003 -15.5157,8.8144 -21.3007,12.6798 9.7389,-5.8901 -10.8867,6.7598 10.1232,-5.8794 18.2082,-10.5437 24.7461,-14.2852 z m -24.7461,14.2852 c -1.9811,1.1506 -3.2664,1.8837 -5.3984,3.125 -1.7445,1.0156 3.5213,-1.9742 5.2422,-3.0293 0.073,-0.0446 0.085,-0.0519 0.1562,-0.0957 z m 26.4024,-15.5742 c 3.4827,-1.9974 7.0538,-4.0575 10.6191,-6.1192 -0.4163,0.1993 -0.8447,0.3953 -1.2676,0.5938 -3.2334,1.8897 -5.2441,3.0588 -9.0195,5.2676 l -0.332,0.2578 z m 0.332,-0.2578 0.7324,-0.5703 c -2.0357,1.2787 -3.3042,2.0748 -1.6074,1.082 0.3716,-0.2175 0.5086,-0.2974 0.875,-0.5117 z m 0.7324,-0.5703 c 1.4562,-0.9147 3.1478,-1.9808 5.0723,-3.2344 -0.7002,0.3096 -1.4043,0.6285 -2.0938,0.918 l -2.9785,2.3164 z m 323.2832,-282.6114 c -0.04,0.0444 -0.081,0.0884 -0.1211,0.1328 -1.721,0.9842 -3.1883,1.8305 -5.0175,2.8731 -1.7241,0.9825 2.3493,-1.3864 5.1386,-3.0059 z m -9.4922,10.1114 c -7.7498,7.8484 -16.0666,15.0903 -24.125,22.6367 -11.5138,11.3105 -22.8067,22.855 -33.7753,34.6953 -12.1003,12.7547 -23.9685,25.7071 -34.9376,39.4629 -13.5432,15.8046 -27.3421,31.4445 -42.2734,45.9609 -14.9126,13.6373 -29.9399,27.2118 -45.7773,39.7695 -4.7101,3.4719 -12.0806,8.6464 -19.1231,13.6075 8.408,-3.462 16.668,-7.225 24.5508,-11.8711 -23.9207,14.8622 -35.9812,22.1147 -40.9414,24.8105 1.1033,-1.2191 2.2142,-2.4315 3.3242,-3.6445 3.5502,-2.5809 8.2036,-5.8693 13.0664,-9.2949 -2.356,0.97 -4.7187,1.9257 -7.0937,2.8593 1.5526,-1.6499 3.103,-3.3016 4.6797,-4.9296 9.4228,-9.6986 19.5317,-18.7005 28.6562,-28.6973 8.7357,-8.4779 18.6023,-15.3992 27.9746,-23.125 10.5539,-10.4928 20.7595,-21.4276 30.1738,-32.9492 11.0547,-14.054 22.8891,-27.4014 35.293,-40.2813 11.0385,-11.3644 21.8013,-23.0521 33.7188,-33.5137 13.4087,-11.1792 27.5264,-21.4286 41.4687,-31.9277 1.7107,-1.1942 3.4276,-2.3782 5.1406,-3.5683 z m -295.5644,258.2382 c -0.033,0.0284 -0.065,0.0576 -0.098,0.086 -7.4411,4.2922 -14.3289,8.258 -19.1953,11.1015 7.9814,-4.6125 13.8429,-8.0187 19.293,-11.1875 z"
       id="path4173"
       inkscape:connector-curvature="0" />
    <path
       style="opacity:1;fill:#000000;fill-opacity:0.00190478;fill-rule:evenodd;stroke:none;stroke-width:1;stroke-linecap:square;stroke-linejoin:bevel;stroke-miterlimit:4;stroke-dasharray:1, 8;stroke-dashoffset:0;stroke-opacity:1"
       id="path4178"
       d="m 2381.1829,-447.6609 c -24.5541,19.9568 -49.1631,39.8127 -74.6395,58.5837 -33.1252,23.8586 -67.424,46.056 -101.8806,67.9328 -30.078,17.5243 -58.3791,37.7938 -86.7957,57.8329 -24.5984,17.252 -49.5832,33.9463 -74.6361,50.5287 -21.371,13.6865 -42.8998,26.9823 -63.3529,42.0253 0,0 -50.8616,20.2374 -50.8616,20.2374 l 0,0 c 19.9684,-15.3875 41.1866,-28.7332 62.5521,-42.0853 25.2797,-16.527 50.3502,-33.3839 75.191,-50.5627 28.5847,-20.0408 56.7364,-40.8129 87.0554,-58.2245 34.6318,-21.7755 69.0545,-43.9629 102.3644,-67.7208 24.7718,-18.0469 48.5519,-37.3104 71.9841,-57.0615 0,0 53.0194,-21.486 53.0194,-21.486 z"
       inkscape:connector-curvature="0" />
    <path
       style="opacity:1;fill:#000000;fill-opacity:0.00190478;fill-rule:evenodd;stroke:none;stroke-width:1;stroke-linecap:square;stroke-linejoin:bevel;stroke-miterlimit:4;stroke-dasharray:1, 8;stroke-dashoffset:0;stroke-opacity:1"
       id="path4180"
       d="m 1889.0653,-48.586 c 10.0633,-18.1976 23.7172,-33.5749 38.3398,-48.1716 16.0131,-15.6152 33.0533,-30.144 50.2692,-44.4077 30.2182,-24.2727 64.7075,-42.8203 98.976,-60.6815 19.8817,-10.8829 39.9195,-21.5456 59.7451,-32.5494 -51.7487,29.7757 -58.7266,33.7671 20.252,-11.5441 12.5699,-7.2116 -25.0305,14.6174 -37.7147,21.6261 -3.3588,1.8559 6.4843,-4.1058 9.7252,-6.1605 13.1424,-8.3318 6.256,-4.113 19.6691,-12.0676 19.2303,-10.9945 38.475,-21.964 57.6909,-32.9836 39.7992,-22.8232 -57.5786,35.7948 -20.9772,11.4421 2.6332,-1.752 5.2385,-3.5465 7.8177,-5.3772 2.5652,-1.8207 5.0758,-3.7172 7.6137,-5.5759 13.0724,-10.0886 25.6848,-20.7535 38.7518,-30.8464 23.2144,-18.8095 49.7286,-31.9749 75.6448,-46.9394 -84.0499,45.3881 -47.6952,29.9996 -31.7581,16.9905 3.187,-2.6015 5.9759,-5.3695 8.9577,-8.205 10.3215,-8.8426 18.6049,-19.3093 25.8991,-30.6855 7.8811,-11.6664 15.6226,-23.4287 22.714,-35.5945 4.72,-8.76 7.8959,-18.2195 11.6391,-27.4123 4.1029,-8.8779 8.1717,-17.7679 12.1416,-26.7054 0,0 51.9783,-23.8057 51.9783,-23.8057 l 0,0 c -3.9644,8.9454 -8.0333,17.8307 -12.2136,26.674 -4.2069,9.2048 -7.169,18.9073 -11.5297,28.0495 -6.9014,12.4333 -14.9785,24.1727 -22.9059,35.9652 -2.5133,4.0467 -4.7382,8.2749 -7.3944,12.2293 -4.9206,7.3255 -11.5416,13.5059 -17.7684,19.6731 -2.9428,2.7908 -5.6582,5.815 -8.6036,8.603 -18.6019,17.6081 -48.8192,21.6771 -65.4844,40.0933 86.0277,-49.7622 39.1825,-24.5094 21.3995,-9.9489 -13.3036,10.0552 -26.2229,20.5906 -39.1846,31.0824 -25.69,19.5985 -51.8826,33.3179 -80.7633,49.9861 -3.1644,1.8263 -12.6751,7.2747 -9.5252,5.4233 12.6503,-7.4356 25.3516,-14.7841 38.0275,-22.1761 -10.0547,5.7332 -19.4943,12.3264 -29.4348,18.2015 -19.1901,11.342 -38.5504,22.3938 -57.8594,33.5324 -6.7542,3.8962 147.8768,-85.8161 -20.3412,11.5516 -19.9806,10.8135 -39.8109,21.8984 -59.868,32.5618 -23.0836,12.5561 -10.9932,6.0871 29.5514,-17.4193 2.8515,-1.6532 -5.7492,3.2271 -8.5777,4.9195 -7.392,4.4229 -9.4779,5.8281 -16.3449,10.9844 -2.645,1.9861 -5.2195,4.0646 -7.8292,6.0969 -17.3959,14.1636 -34.5981,28.6188 -50.8458,44.0962 -14.2958,13.9018 -28.3624,28.177 -37.5394,46.1442 0,0 -52.34,23.3312 -52.34,23.3312 z"
       inkscape:connector-curvature="0" />
    <path
       style="opacity:1;fill:#000000;fill-opacity:0.00190478;fill-rule:evenodd;stroke:none;stroke-width:1;stroke-linecap:square;stroke-linejoin:bevel;stroke-miterlimit:4;stroke-dasharray:1, 8;stroke-dashoffset:0;stroke-opacity:1"
       id="path4182"
       d="m 1947.6751,-111.4026 c 28.6069,-12.5512 55.7382,-28.1174 83.3088,-42.734 34.0206,-19.4975 70.0812,-34.8701 105.671,-51.1569 29.6324,-13.5081 60.34,-24.4523 89.9864,-37.9199 15.7612,-9.8661 60.6237,-31.24 -14.5446,8.4196 -3.908,2.062 7.4219,-4.7976 11.102,-7.2432 11.0304,-7.3303 11.2459,-7.6112 21.9702,-15.2412 21.2523,-14.9061 42.6893,-29.5552 61.8924,-47.075 16.1456,-15.1297 31.5498,-31.0222 47.5711,-46.2783 13.4605,-13.6145 26.5506,-27.6708 38.7866,-42.4055 6.1153,-8.652 9.7568,-18.8844 12.6526,-29.0088 0.4095,-1.9123 0.8189,-3.8246 1.2283,-5.7369 0,0 51.1878,-24.8329 51.1878,-24.8329 l 0,0 c -0.3668,2.0067 -0.7337,4.0134 -1.1005,6.0201 -2.4661,10.8747 -6.3633,21.4896 -11.7078,31.2823 -12.171,15.2474 -26.2471,28.9296 -39.2834,43.4222 -16.2309,15.1148 -31.5151,31.2106 -47.7238,46.3544 -18.8469,18.1509 -40.3784,32.9229 -61.8246,47.8282 -35.9653,26.1085 -74.1883,48.9548 -113.8283,69.0686 -29.4495,12.8372 -59.7439,23.6547 -88.9215,37.1356 -35.7041,16.1844 -71.5183,32.1759 -105.6476,51.5683 -28.292,15.1156 -56.3448,30.7519 -85.5692,44.0319 0,0 44.7941,-35.4986 44.7941,-35.4986 z"
       inkscape:connector-curvature="0" />
    <path
       style="opacity:1;fill:#000000;fill-opacity:0.00190478;fill-rule:evenodd;stroke:none;stroke-width:1;stroke-linecap:square;stroke-linejoin:bevel;stroke-miterlimit:4;stroke-dasharray:1, 8;stroke-dashoffset:0;stroke-opacity:1"
       id="path4184"
       d="m 2166.8655,-459.1542 c -1.2354,33.5386 -1.2284,67.1073 -1.2894,100.6638 -0.3111,48.7432 -0.5224,97.4863 -0.1834,146.2297 0.3809,26.9238 0.9187,53.8434 1.1103,80.7694 -0.045,10.2581 0.083,20.5148 0.3158,30.7699 0,0 -50.7456,25.8562 -50.7456,25.8562 l 0,0 c 0.2296,-10.3624 0.3604,-20.7264 0.3157,-31.0917 0.1929,-27.3031 0.7309,-54.5999 1.1103,-81.9008 0.3362,-48.6811 0.1313,-97.3619 -0.1834,-146.0429 -0.06,-33.1183 -0.038,-66.25 -1.2894,-99.3498 0,0 50.8391,-25.9038 50.8391,-25.9038 z"
       inkscape:connector-curvature="0" />
    <rect
       style="color:#000000;clip-rule:nonzero;display:inline;overflow:visible;visibility:visible;opacity:1;isolation:auto;mix-blend-mode:normal;color-interpolation:sRGB;color-interpolation-filters:linearRGB;solid-color:#000000;solid-opacity:1;fill:none;fill-opacity:1;fill-rule:nonzero;stroke:#000000;stroke-width:0.99999994;stroke-linecap:butt;stroke-linejoin:miter;stroke-miterlimit:4;stroke-dasharray:none;stroke-dashoffset:0;stroke-opacity:1;color-rendering:auto;image-rendering:auto;shape-rendering:auto;text-rendering:auto;enable-background:accumulate"
       id="rect4198"
       width="1347.8348"
       height="297.63779"
       x="483.17825"
       y="-1150.9305"
       rx="180"
       ry="2.27374e-13" />
    <text
       xml:space="preserve"
       style="font-style:normal;font-variant:normal;font-weight:normal;font-stretch:normal;font-size:40px;line-height:125%;font-family:'.Al Bayan PUA';-inkscape-font-specification:'.Al Bayan PUA, Normal';text-align:start;letter-spacing:0px;word-spacing:0px;writing-mode:lr-tb;text-anchor:start;fill:#000000;fill-opacity:1;stroke:none;stroke-width:1px;stroke-linecap:butt;stroke-linejoin:miter;stroke-opacity:1"
       x="630.06439"
       y="-1004.0443"
       id="text4200"
       sodipodi:linespacing="125%"><tspan
         sodipodi:role="line"
         id="tspan4202"
         x="630.06439"
         y="-1004.0443">O U T I   H A M A R A '''S  O N L I N E  P O R T F O L I O </tspan></text>
    <text
       xml:space="preserve"
       style="font-style:normal;font-variant:normal;font-weight:normal;font-stretch:normal;font-size:40px;line-height:125%;font-family:'.Al Bayan PUA';-inkscape-font-specification:'.Al Bayan PUA, Normal';text-align:start;letter-spacing:0px;word-spacing:0px;writing-mode:lr-tb;text-anchor:start;fill:#000000;fill-opacity:1;stroke:none;stroke-width:1px;stroke-linecap:butt;stroke-linejoin:miter;stroke-opacity:1"
       x="695.77667"
       y="638.76166"
       id="text4204"
       sodipodi:linespacing="125%"><tspan
         sodipodi:role="line"
         x="695.77667"
         y="638.76166"
         id="tspan4208" /></text>
    <text
       xml:space="preserve"
       style="font-style:normal;font-variant:normal;font-weight:normal;font-stretch:normal;font-size:40px;line-height:125%;font-family:'.Al Bayan PUA';-inkscape-font-specification:'.Al Bayan PUA, Normal';text-align:start;letter-spacing:0px;word-spacing:0px;writing-mode:lr-tb;text-anchor:start;fill:#000000;fill-opacity:1;stroke:none;stroke-width:1px;stroke-linecap:butt;stroke-linejoin:miter;stroke-opacity:1"
       x="1441.804"
       y="627.16547"
       id="text4210"
       sodipodi:linespacing="125%"><tspan
         sodipodi:role="line"
         id="tspan4212"
         x="1441.804"
         y="627.16547" /></text>
    <text
       xml:space="preserve"
       style="font-style:normal;font-variant:normal;font-weight:normal;font-stretch:normal;font-size:40px;line-height:125%;font-family:'.Al Bayan PUA';-inkscape-font-specification:'.Al Bayan PUA, Normal';text-align:start;letter-spacing:0px;word-spacing:0px;writing-mode:lr-tb;text-anchor:start;fill:#000000;fill-opacity:1;stroke:none;stroke-width:1px;stroke-linecap:butt;stroke-linejoin:miter;stroke-opacity:1"
       x="2006.156"
       y="650.35809"
       id="text4214"
       sodipodi:linespacing="125%"><tspan
         sodipodi:role="line"
         id="tspan4216"
         x="2006.156"
         y="650.35809">S K I L L S</tspan></text>
    <text
       xml:space="preserve"
       style="font-style:normal;font-variant:normal;font-weight:normal;font-stretch:normal;font-size:40px;line-height:125%;font-family:'.Al Bayan PUA';-inkscape-font-specification:'.Al Bayan PUA, Normal';text-align:start;letter-spacing:0px;word-spacing:0px;writing-mode:lr-tb;text-anchor:start;fill:#000000;fill-opacity:1;stroke:none;stroke-width:1px;stroke-linecap:butt;stroke-linejoin:miter;stroke-opacity:1"
       x="1341.3029"
       y="638.76166"
       id="text4218"
       sodipodi:linespacing="125%"><tspan
         sodipodi:role="line"
         id="tspan4220"
         x="1341.3029"
         y="638.76166">W O R K</tspan></text>
    <text
       xml:space="preserve"
       style="font-style:normal;font-variant:normal;font-weight:normal;font-stretch:normal;font-size:40px;line-height:125%;font-family:'.Al Bayan PUA';-inkscape-font-specification:'.Al Bayan PUA, Normal';text-align:start;letter-spacing:0px;word-spacing:0px;writing-mode:lr-tb;text-anchor:start;fill:#000000;fill-opacity:1;stroke:none;stroke-width:1px;stroke-linecap:butt;stroke-linejoin:miter;stroke-opacity:1"
       x="610.7373"
       y="615.56903"
       id="text4224"
       sodipodi:linespacing="125%"><tspan
         sodipodi:role="line"
         id="tspan4226"
         x="610.7373"
         y="615.56903" /><tspan
         sodipodi:role="line"
         x="610.7373"
         y="665.56903"
         id="tspan4228" /><tspan
         sodipodi:role="line"
         x="610.7373"
         y="715.56903"
         id="tspan4230" /></text>
    <text
       xml:space="preserve"
       style="font-style:normal;font-variant:normal;font-weight:normal;font-stretch:normal;font-size:40px;line-height:125%;font-family:'.Al Bayan PUA';-inkscape-font-specification:'.Al Bayan PUA, Normal';text-align:start;letter-spacing:0px;word-spacing:0px;writing-mode:lr-tb;text-anchor:start;fill:#000000;fill-opacity:1;stroke:none;stroke-width:1px;stroke-linecap:butt;stroke-linejoin:miter;stroke-opacity:1"
       x="2021.6178"
       y="-385.57623"
       id="text4232"
       sodipodi:linespacing="125%"><tspan
         sodipodi:role="line"
         id="tspan4234"
         x="2021.6178"
         y="-385.57623">O</tspan></text>
    <text
       xml:space="preserve"
       style="font-style:normal;font-variant:normal;font-weight:normal;font-stretch:normal;font-size:40px;line-height:125%;font-family:'.Al Bayan PUA';-inkscape-font-specification:'.Al Bayan PUA, Normal';text-align:start;letter-spacing:0px;word-spacing:0px;writing-mode:lr-tb;text-anchor:start;fill:#000000;fill-opacity:1;stroke:none;stroke-width:1px;stroke-linecap:butt;stroke-linejoin:miter;stroke-opacity:1"
       x="2234.2163"
       y="-397.17255"
       id="text4236"
       sodipodi:linespacing="125%"><tspan
         sodipodi:role="line"
         id="tspan4238"
         x="2234.2163"
         y="-397.17255">U</tspan></text>
    <text
       xml:space="preserve"
       style="font-style:normal;font-variant:normal;font-weight:normal;font-stretch:normal;font-size:40px;line-height:125%;font-family:'.Al Bayan PUA';-inkscape-font-specification:'.Al Bayan PUA, Normal';text-align:start;letter-spacing:0px;word-spacing:0px;writing-mode:lr-tb;text-anchor:start;fill:#000000;fill-opacity:1;stroke:none;stroke-width:1px;stroke-linecap:butt;stroke-linejoin:miter;stroke-opacity:1"
       x="2025.4832"
       y="-250.2863"
       id="text4240"
       sodipodi:linespacing="125%"><tspan
         sodipodi:role="line"
         id="tspan4242"
         x="2025.4832"
         y="-250.2863">T</tspan></text>
    <text
       xml:space="preserve"
       style="font-style:normal;font-variant:normal;font-weight:normal;font-stretch:normal;font-size:40px;line-height:125%;font-family:'.Al Bayan PUA';-inkscape-font-specification:'.Al Bayan PUA, Normal';text-align:start;letter-spacing:0px;word-spacing:0px;writing-mode:lr-tb;text-anchor:start;fill:#000000;fill-opacity:1;stroke:none;stroke-width:1px;stroke-linecap:butt;stroke-linejoin:miter;stroke-opacity:1"
       x="2257.4087"
       y="-250.2863"
       id="text4244"
       sodipodi:linespacing="125%"><tspan
         sodipodi:role="line"
         id="tspan4246"
         x="2257.4087"
         y="-250.2863" /></text>
    <text
       xml:space="preserve"
       style="font-style:normal;font-variant:normal;font-weight:normal;font-stretch:normal;font-size:40px;line-height:125%;font-family:'.Al Bayan PUA';-inkscape-font-specification:'.Al Bayan PUA, Normal';text-align:start;letter-spacing:0px;word-spacing:0px;writing-mode:lr-tb;text-anchor:start;fill:#000000;fill-opacity:1;stroke:none;stroke-width:1px;stroke-linecap:butt;stroke-linejoin:miter;stroke-opacity:1"
       x="2241.947"
       y="-250.2863"
       id="text4248"
       sodipodi:linespacing="125%"><tspan
         sodipodi:role="line"
         id="tspan4250"
         x="2241.947"
         y="-250.2863">I</tspan></text>
    <path
       style="fill:none;fill-rule:evenodd;stroke:#020202;stroke-width:1;stroke-linecap:butt;stroke-linejoin:miter;stroke-opacity:0.00509574;stroke-miterlimit:4;stroke-dasharray:none"
       d="m 2172.3694,-501.53896 3.8654,390.40806"
       id="path4252"
       inkscape:connector-curvature="0" />
    <path
       style="color:#000000;clip-rule:nonzero;display:inline;overflow:visible;visibility:visible;opacity:1;isolation:auto;mix-blend-mode:normal;color-interpolation:sRGB;color-interpolation-filters:linearRGB;solid-color:#000000;solid-opacity:1;fill:#ff0033;fill-opacity:1;fill-rule:nonzero;stroke:#020c00;stroke-width:6;stroke-linecap:butt;stroke-linejoin:miter;stroke-miterlimit:4;stroke-dasharray:none;stroke-dashoffset:0;stroke-opacity:1;color-rendering:auto;image-rendering:auto;shape-rendering:auto;text-rendering:auto;enable-background:accumulate"
       d="m 2141.446,-497.6735 c 3.8654,371.0808 3.8654,378.8117 3.8654,378.8117 z"
       id="path4268"
       inkscape:connector-curvature="0" />
    <rect
       style="color:#000000;clip-rule:nonzero;display:inline;overflow:visible;visibility:visible;opacity:1;isolation:auto;mix-blend-mode:normal;color-interpolation:sRGB;color-interpolation-filters:linearRGB;solid-color:#000000;solid-opacity:1;fill:none;fill-opacity:1;fill-rule:nonzero;stroke:#000000;stroke-width:1;stroke-linecap:butt;stroke-linejoin:miter;stroke-miterlimit:4;stroke-dasharray:none;stroke-dashoffset:0;stroke-opacity:1;color-rendering:auto;image-rendering:auto;shape-rendering:auto;text-rendering:auto;enable-background:accumulate"
       id="rect4278"
       width="498.63995"
       height="162.34789"
       x="2493.1997"
       y="553.72235"
       rx="180"
       ry="3.8654301" />
    <text
       xml:space="preserve"
       style="font-style:normal;font-variant:normal;font-weight:normal;font-stretch:normal;font-size:40px;line-height:125%;font-family:'.Al Bayan PUA';-inkscape-font-specification:'.Al Bayan PUA, Normal';text-align:start;letter-spacing:0px;word-spacing:0px;writing-mode:lr-tb;text-anchor:start;fill:#000000;fill-opacity:1;stroke:none;stroke-width:1px;stroke-linecap:butt;stroke-linejoin:miter;stroke-opacity:1"
       x="2620.7588"
       y="650.35809"
       id="text4280"
       sodipodi:linespacing="125%"><tspan
         sodipodi:role="line"
         id="tspan4282"
         x="2620.7588"
         y="650.35809">C O N T A C T </tspan><tspan
         sodipodi:role="line"
         x="2620.7588"
         y="700.35809"
         id="tspan4305" /></text>
    <path
       style="color:#000000;clip-rule:nonzero;display:inline;overflow:visible;visibility:visible;opacity:1;isolation:auto;mix-blend-mode:normal;color-interpolation:sRGB;color-interpolation-filters:linearRGB;solid-color:#000000;solid-opacity:1;fill:#000000;fill-opacity:1;fill-rule:nonzero;stroke:#080908;stroke-width:6;stroke-linecap:butt;stroke-linejoin:miter;stroke-miterlimit:4;stroke-dasharray:none;stroke-dashoffset:10;stroke-opacity:1;color-rendering:auto;image-rendering:auto;shape-rendering:auto;text-rendering:auto;enable-background:accumulate"
       d="m 1916.0215,-330.6718 c 470.1222,2.7333 470.1222,0 470.1222,0 z"
       id="path4303"
       inkscape:connector-curvature="0" />
    <text
       xml:space="preserve"
       style="font-style:normal;font-variant:normal;font-weight:normal;font-stretch:normal;font-size:40px;line-height:125%;font-family:'.Al Bayan PUA';-inkscape-font-specification:'.Al Bayan PUA, Normal';text-align:start;letter-spacing:0px;word-spacing:0px;writing-mode:lr-tb;text-anchor:start;fill:#000000;fill-opacity:1;stroke:none;stroke-width:1px;stroke-linecap:butt;stroke-linejoin:miter;stroke-opacity:1"
       x="579.453"
       y="639.63861"
       id="text4307"
       sodipodi:linespacing="125%"><tspan
         sodipodi:role="line"
         id="tspan4309"
         x="579.453"
         y="639.63861">this is  M E</tspan><tspan
         sodipodi:role="line"
         x="579.453"
         y="689.63861"
         id="tspan4311" /></text>
    <rect
       style="color:#000000;clip-rule:nonzero;display:inline;overflow:visible;visibility:visible;opacity:1;isolation:auto;mix-blend-mode:normal;color-interpolation:sRGB;color-interpolation-filters:linearRGB;solid-color:#000000;solid-opacity:1;fill:none;fill-opacity:1;fill-rule:nonzero;stroke:#000000;stroke-width:1;stroke-linecap:butt;stroke-linejoin:miter;stroke-miterlimit:4;stroke-dasharray:none;stroke-dashoffset:0;stroke-opacity:1;color-rendering:auto;image-rendering:auto;shape-rendering:auto;text-rendering:auto;enable-background:accumulate"
       id="rect4313"
       width="16.399612"
       height="8.1998062"
       x="478.32205"
       y="713.43695"
       rx="180"
       ry="3.8654301" />
  </g>
</svg>
